<svg xmlns="http://www.w3.org/2000/svg" fill="none" viewBox="0 0 119 117">
  <path d="M103.963 19.626C94.568 9.239 81.719 2.48 67.716.56 53.714-1.359 39.474 1.686 27.548 9.15 15.622 16.616 6.788 28.01 2.631 41.297a57.586 57.586 0 002.228 40.358c5.595 12.765 15.63 23.154 28.309 29.305 12.677 6.152 27.169 7.664 40.878 4.266 13.708-3.398 25.738-11.484 33.935-22.81 8.196-11.326 12.022-25.151 10.794-38.999l-7.368.632c1.076 12.127-2.275 24.233-9.452 34.151-7.178 9.918-17.713 17-29.717 19.975a52.91 52.91 0 01-35.797-3.735c-11.102-5.387-19.89-14.485-24.79-25.663A50.429 50.429 0 019.7 43.435C13.34 31.8 21.076 21.82 31.52 15.285 41.963 8.748 54.433 6.08 66.695 7.762c12.262 1.681 23.514 7.6 31.741 16.696l5.527-4.832z" fill="url(#hlDqS049UQwa)"/>
  <defs>
    <linearGradient id="hlDqS049UQwa" x1="73.122" y1="2.028" x2="117.037" y2="71.15" gradientUnits="userSpaceOnUse">
      <stop stop-color="#42FF00"/>
      <stop offset=".432" stop-color="#FAFF00"/>
      <stop offset="1" stop-color="red"/>
      <stop offset="1" stop-color="red" stop-opacity="0"/>
    </linearGradient>
  </defs>
</svg>
